<svg width="1195" height="500" viewBox="0 0 1195 500" fill="none" xmlns="http://www.w3.org/2000/svg">
<path d="M0 50C0 22.3858 22.3858 0 50 0H1145C1172.61 0 1195 22.3858 1195 50V450C1195 477.614 1172.61 500 1145 500H50C22.3858 500 0 477.614 0 450V50Z" fill="#FBF4E2"/>
<mask id="mask0_201_9" style="mask-type:alpha" maskUnits="userSpaceOnUse" x="0" y="1" width="1195" height="499">
<path d="M0 51C0 23.3858 22.3858 1 50 1H1145C1172.61 1 1195 23.3858 1195 51V450C1195 477.614 1172.61 500 1145 500H50C22.3858 500 0 477.614 0 450V51Z" fill="#FBF4E2"/>
</mask>
<g mask="url(#mask0_201_9)">
<path fill-rule="evenodd" clip-rule="evenodd" d="M1006.45 59.0649C1006.41 46.6229 997.379 36.5784 986.286 36.63C975.193 36.6817 966.239 46.8099 966.285 59.2518C966.331 71.6937 975.36 81.7383 986.453 81.6866C997.546 81.635 1006.5 71.5068 1006.45 59.0649ZM986.186 9.61837C1010.59 9.5171 1030.46 31.6244 1030.58 58.9972C1030.69 86.3699 1011 108.641 986.598 108.743C962.194 108.844 942.319 86.7367 942.206 59.3639C942.092 31.9912 961.783 9.71966 986.186 9.61837Z" fill="#FFC735"/>
<path fill-rule="evenodd" clip-rule="evenodd" d="M1057.07 64.0054C1092.56 63.8403 1121.21 31.4356 1121.06 -8.37297C1121.03 -15.8368 1126.41 -21.913 1133.06 -21.9439C1139.71 -21.9749 1145.13 -15.9489 1145.16 -8.48511C1145.36 46.2511 1105.97 90.8081 1057.17 91.0352C1050.51 91.0662 1045.1 85.0402 1045.07 77.5764C1045.04 70.1126 1050.41 64.0364 1057.07 64.0054Z" fill="#B4D51E"/>
<path d="M1078.89 111.762C1129.41 111.527 1170.19 65.4024 1169.98 8.74067C1169.95 1.28537 1175.32 -4.78386 1181.97 -4.81479C1188.61 -4.84572 1194.02 1.17335 1194.05 8.62865C1194.32 80.2018 1142.8 138.464 1078.99 138.761C1072.35 138.792 1066.94 132.773 1066.91 125.318C1066.88 117.862 1072.25 111.793 1078.89 111.762Z" fill="#E5E0D5"/>
</g>
<path d="M342.2 161.12L345.992 160.64V131.936L342.392 131.264V128.336H349.352C349.96 128.336 350.632 128.32 351.368 128.288C352.104 128.256 352.664 128.224 353.048 128.192C354.712 128.064 356.088 128 357.176 128C360.472 128 363.112 128.336 365.096 129.008C367.08 129.68 368.52 130.704 369.416 132.08C370.312 133.456 370.76 135.264 370.76 137.504C370.76 139.712 370.168 141.76 368.984 143.648C367.8 145.536 366.088 146.832 363.848 147.536C365.128 148.08 366.264 149.072 367.256 150.512C368.248 151.952 369.304 153.824 370.424 156.128C371.224 157.696 371.832 158.832 372.248 159.536C372.696 160.208 373.128 160.592 373.544 160.688L375.128 161.168V164H366.968C366.456 164 365.912 163.488 365.336 162.464C364.792 161.408 364.072 159.76 363.176 157.52C362.12 154.896 361.208 152.848 360.44 151.376C359.672 149.904 358.856 148.992 357.992 148.64H353.048V160.64L357.464 161.12V164H342.2V161.12ZM357.464 145.712C359.288 145.712 360.712 145.056 361.736 143.744C362.76 142.432 363.272 140.464 363.272 137.84C363.272 135.504 362.76 133.776 361.736 132.656C360.744 131.536 359.016 130.976 356.552 130.976C355.656 130.976 354.888 131.024 354.248 131.12C353.64 131.184 353.24 131.216 353.048 131.216V145.616C353.432 145.68 354.36 145.712 355.832 145.712H357.464ZM389.178 164.528C384.954 164.528 381.802 163.296 379.722 160.832C377.674 158.336 376.65 154.944 376.65 150.656C376.65 147.776 377.178 145.28 378.234 143.168C379.322 141.056 380.842 139.44 382.794 138.32C384.746 137.2 387.002 136.64 389.562 136.64C392.762 136.64 395.226 137.488 396.954 139.184C398.682 140.848 399.578 143.232 399.642 146.336C399.642 148.448 399.514 150.016 399.258 151.04H383.658C383.786 153.952 384.474 156.224 385.722 157.856C386.97 159.456 388.746 160.256 391.05 160.256C392.298 160.256 393.578 160.048 394.89 159.632C396.234 159.216 397.29 158.72 398.058 158.144L399.258 160.784C398.394 161.712 396.986 162.576 395.034 163.376C393.114 164.144 391.162 164.528 389.178 164.528ZM392.922 148.16C392.986 147.264 393.018 146.576 393.018 146.096C393.018 141.84 391.594 139.712 388.746 139.712C387.178 139.712 385.962 140.336 385.098 141.584C384.234 142.832 383.754 145.024 383.658 148.16H392.922ZM402.849 150.8C402.849 148.048 403.393 145.6 404.48 143.456C405.601 141.312 407.185 139.648 409.233 138.464C411.313 137.248 413.729 136.64 416.481 136.64C417.761 136.64 418.865 136.736 419.793 136.928C420.721 137.12 421.761 137.376 422.913 137.696L424.305 138.08L424.017 146.288H419.841L418.641 141.008C418.449 140.176 417.505 139.76 415.809 139.76C414.017 139.76 412.609 140.544 411.585 142.112C410.593 143.68 410.081 146.128 410.049 149.456C410.049 152.976 410.657 155.68 411.873 157.568C413.089 159.424 414.705 160.352 416.721 160.352C419.153 160.352 421.393 159.696 423.441 158.384L424.545 160.88C423.713 161.776 422.433 162.608 420.705 163.376C419.009 164.144 417.169 164.528 415.185 164.528C411.089 164.528 408.001 163.264 405.921 160.736C403.873 158.208 402.849 154.896 402.849 150.8ZM428.363 150.704C428.363 147.696 428.955 145.136 430.139 143.024C431.355 140.912 432.971 139.328 434.987 138.272C437.003 137.184 439.195 136.64 441.563 136.64C445.595 136.64 448.699 137.888 450.875 140.384C453.083 142.848 454.187 146.208 454.187 150.464C454.187 153.504 453.579 156.096 452.363 158.24C451.179 160.352 449.579 161.936 447.563 162.992C445.579 164.016 443.387 164.528 440.987 164.528C436.987 164.528 433.883 163.296 431.675 160.832C429.467 158.336 428.363 154.96 428.363 150.704ZM441.371 161.408C444.987 161.408 446.795 157.92 446.795 150.944C446.795 147.296 446.363 144.528 445.499 142.64C444.635 140.72 443.227 139.76 441.275 139.76C437.563 139.76 435.707 143.248 435.707 150.224C435.707 153.872 436.155 156.656 437.051 158.576C437.979 160.464 439.419 161.408 441.371 161.408ZM458.551 161.12L461.239 160.688V141.872L458.167 141.008V137.696L466.135 136.688L466.711 137.072L467.431 138.656V140.672C468.487 139.648 469.991 138.752 471.943 137.984C473.927 137.184 475.639 136.784 477.079 136.784C478.807 136.784 480.199 137.072 481.255 137.648C482.343 138.224 483.159 139.12 483.703 140.336C484.759 139.376 486.151 138.544 487.879 137.84C489.607 137.136 491.303 136.784 492.967 136.784C495.815 136.784 497.831 137.616 499.015 139.28C500.199 140.944 500.791 143.664 500.791 147.44V160.688L503.911 161.12V164H491.479V161.12L493.975 160.688V147.632C493.975 145.136 493.671 143.392 493.063 142.4C492.487 141.376 491.367 140.864 489.703 140.864C488.807 140.864 487.879 141.072 486.919 141.488C485.991 141.872 485.159 142.352 484.423 142.928C484.647 144.144 484.759 145.664 484.759 147.488V160.688L487.735 161.12V164H475.207V161.12L477.847 160.688V147.488C477.847 145.824 477.735 144.528 477.511 143.6C477.319 142.64 476.935 141.952 476.359 141.536C475.783 141.088 474.951 140.864 473.863 140.864C472.839 140.864 471.815 141.104 470.791 141.584C469.799 142.032 468.903 142.576 468.103 143.216V160.688L470.935 161.12V164H458.551V161.12ZM507.16 161.12L509.848 160.688V141.872L506.776 141.008V137.696L514.744 136.688L515.32 137.072L516.04 138.656V140.672C517.096 139.648 518.6 138.752 520.552 137.984C522.536 137.184 524.248 136.784 525.688 136.784C527.416 136.784 528.808 137.072 529.864 137.648C530.952 138.224 531.768 139.12 532.312 140.336C533.368 139.376 534.76 138.544 536.488 137.84C538.216 137.136 539.912 136.784 541.576 136.784C544.424 136.784 546.44 137.616 547.624 139.28C548.808 140.944 549.4 143.664 549.4 147.44V160.688L552.52 161.12V164H540.088V161.12L542.584 160.688V147.632C542.584 145.136 542.28 143.392 541.672 142.4C541.096 141.376 539.976 140.864 538.312 140.864C537.416 140.864 536.488 141.072 535.528 141.488C534.6 141.872 533.768 142.352 533.032 142.928C533.256 144.144 533.368 145.664 533.368 147.488V160.688L536.344 161.12V164H523.816V161.12L526.456 160.688V147.488C526.456 145.824 526.344 144.528 526.12 143.6C525.928 142.64 525.544 141.952 524.968 141.536C524.392 141.088 523.56 140.864 522.472 140.864C521.448 140.864 520.424 141.104 519.4 141.584C518.408 142.032 517.512 142.576 516.712 143.216V160.688L519.544 161.12V164H507.16V161.12ZM567.865 164.528C563.641 164.528 560.489 163.296 558.409 160.832C556.361 158.336 555.337 154.944 555.337 150.656C555.337 147.776 555.865 145.28 556.921 143.168C558.009 141.056 559.529 139.44 561.481 138.32C563.433 137.2 565.689 136.64 568.249 136.64C571.449 136.64 573.913 137.488 575.641 139.184C577.369 140.848 578.265 143.232 578.329 146.336C578.329 148.448 578.201 150.016 577.945 151.04H562.345C562.473 153.952 563.161 156.224 564.409 157.856C565.657 159.456 567.433 160.256 569.737 160.256C570.985 160.256 572.265 160.048 573.577 159.632C574.921 159.216 575.977 158.72 576.745 158.144L577.945 160.784C577.081 161.712 575.673 162.576 573.721 163.376C571.801 164.144 569.849 164.528 567.865 164.528ZM571.609 148.16C571.673 147.264 571.705 146.576 571.705 146.096C571.705 141.84 570.281 139.712 567.433 139.712C565.865 139.712 564.649 140.336 563.785 141.584C562.921 142.832 562.441 145.024 562.345 148.16H571.609ZM584.848 141.872L581.776 141.008V137.696L589.744 136.688H589.888L591.088 137.648V139.52L591.04 140.672C592.16 139.616 593.616 138.704 595.408 137.936C597.2 137.168 599.008 136.784 600.832 136.784C602.784 136.784 604.304 137.152 605.392 137.888C606.512 138.592 607.312 139.712 607.792 141.248C608.272 142.784 608.512 144.864 608.512 147.488V160.736L611.44 161.12V164H599.056V161.12L601.648 160.736V147.488C601.648 145.824 601.536 144.528 601.312 143.6C601.088 142.64 600.672 141.952 600.064 141.536C599.488 141.088 598.656 140.864 597.568 140.864C595.744 140.864 593.792 141.648 591.712 143.216V160.688L594.592 161.12V164H582.064V161.12L584.848 160.688V141.872ZM624.864 164.528C622.88 164.528 621.104 164.064 619.536 163.136C617.968 162.176 616.72 160.704 615.792 158.72C614.864 156.736 614.4 154.256 614.4 151.28C614.4 148.592 614.944 146.144 616.032 143.936C617.152 141.696 618.784 139.92 620.928 138.608C623.072 137.296 625.648 136.64 628.656 136.64C629.872 136.64 631.024 136.768 632.112 137.024V128.912L627.408 128.24V125.6L637.296 124.64H637.44L638.784 125.648V161.072H641.376V163.808C639.072 164.288 637.168 164.528 635.664 164.528C634.64 164.528 633.904 164.352 633.456 164C633.04 163.68 632.832 163.024 632.832 162.032V160.688C632 161.808 630.864 162.736 629.424 163.472C627.984 164.176 626.464 164.528 624.864 164.528ZM627.36 160.544C628.416 160.544 629.344 160.336 630.144 159.92C630.976 159.472 631.632 158.944 632.112 158.336V140.864C631.888 140.544 631.408 140.272 630.672 140.048C629.968 139.824 629.2 139.712 628.368 139.712C626.32 139.712 624.672 140.608 623.424 142.4C622.208 144.16 621.6 146.992 621.6 150.896C621.6 154.16 622.128 156.592 623.184 158.192C624.24 159.76 625.632 160.544 627.36 160.544ZM656.975 164.528C652.751 164.528 649.599 163.296 647.519 160.832C645.471 158.336 644.447 154.944 644.447 150.656C644.447 147.776 644.975 145.28 646.031 143.168C647.119 141.056 648.639 139.44 650.591 138.32C652.543 137.2 654.799 136.64 657.359 136.64C660.559 136.64 663.023 137.488 664.751 139.184C666.479 140.848 667.375 143.232 667.439 146.336C667.439 148.448 667.311 150.016 667.055 151.04H651.455C651.583 153.952 652.271 156.224 653.519 157.856C654.767 159.456 656.543 160.256 658.847 160.256C660.095 160.256 661.375 160.048 662.687 159.632C664.031 159.216 665.087 158.72 665.855 158.144L667.055 160.784C666.191 161.712 664.783 162.576 662.831 163.376C660.911 164.144 658.959 164.528 656.975 164.528ZM660.719 148.16C660.783 147.264 660.815 146.576 660.815 146.096C660.815 141.84 659.391 139.712 656.543 139.712C654.975 139.712 653.759 140.336 652.895 141.584C652.031 142.832 651.551 145.024 651.455 148.16H660.719ZM681.301 164.528C679.317 164.528 677.541 164.064 675.973 163.136C674.405 162.176 673.157 160.704 672.229 158.72C671.301 156.736 670.837 154.256 670.837 151.28C670.837 148.592 671.381 146.144 672.469 143.936C673.589 141.696 675.221 139.92 677.365 138.608C679.509 137.296 682.085 136.64 685.093 136.64C686.309 136.64 687.461 136.768 688.549 137.024V128.912L683.845 128.24V125.6L693.733 124.64H693.877L695.221 125.648V161.072H697.813V163.808C695.509 164.288 693.605 164.528 692.101 164.528C691.077 164.528 690.341 164.352 689.893 164C689.477 163.68 689.269 163.024 689.269 162.032V160.688C688.437 161.808 687.301 162.736 685.861 163.472C684.421 164.176 682.901 164.528 681.301 164.528ZM683.797 160.544C684.853 160.544 685.781 160.336 686.581 159.92C687.413 159.472 688.069 158.944 688.549 158.336V140.864C688.325 140.544 687.845 140.272 687.109 140.048C686.405 139.824 685.637 139.712 684.805 139.712C682.757 139.712 681.109 140.608 679.861 142.4C678.645 144.16 678.037 146.992 678.037 150.896C678.037 154.16 678.565 156.592 679.621 158.192C680.677 159.76 682.069 160.544 683.797 160.544ZM710.547 125.696L719.331 124.64H719.427L720.771 125.552V139.712C721.635 138.848 722.691 138.128 723.939 137.552C725.219 136.944 726.595 136.64 728.067 136.64C731.139 136.64 733.635 137.728 735.555 139.904C737.507 142.048 738.483 145.344 738.483 149.792C738.483 152.544 737.907 155.04 736.755 157.28C735.603 159.52 733.939 161.296 731.763 162.608C729.619 163.888 727.123 164.528 724.275 164.528C721.747 164.528 719.555 164.32 717.699 163.904C715.843 163.456 714.659 163.056 714.147 162.704V128.768L710.547 128.192V125.696ZM725.523 140.864C724.563 140.864 723.651 141.088 722.787 141.536C721.955 141.952 721.283 142.432 720.771 142.976V160.496C720.963 160.848 721.411 161.136 722.115 161.36C722.819 161.584 723.619 161.696 724.515 161.696C726.563 161.696 728.195 160.752 729.411 158.864C730.659 156.944 731.283 154.112 731.283 150.368C731.283 147.136 730.755 144.752 729.699 143.216C728.643 141.648 727.251 140.864 725.523 140.864ZM742.379 150.704C742.379 147.696 742.971 145.136 744.155 143.024C745.371 140.912 746.987 139.328 749.003 138.272C751.019 137.184 753.211 136.64 755.579 136.64C759.611 136.64 762.715 137.888 764.891 140.384C767.099 142.848 768.203 146.208 768.203 150.464C768.203 153.504 767.595 156.096 766.379 158.24C765.195 160.352 763.595 161.936 761.579 162.992C759.595 164.016 757.403 164.528 755.003 164.528C751.003 164.528 747.899 163.296 745.691 160.832C743.483 158.336 742.379 154.96 742.379 150.704ZM755.387 161.408C759.003 161.408 760.811 157.92 760.811 150.944C760.811 147.296 760.379 144.528 759.515 142.64C758.651 140.72 757.243 139.76 755.291 139.76C751.579 139.76 749.723 143.248 749.723 150.224C749.723 153.872 750.171 156.656 751.067 158.576C751.995 160.464 753.435 161.408 755.387 161.408ZM772.566 150.704C772.566 147.696 773.158 145.136 774.342 143.024C775.558 140.912 777.174 139.328 779.19 138.272C781.206 137.184 783.398 136.64 785.766 136.64C789.798 136.64 792.902 137.888 795.078 140.384C797.286 142.848 798.39 146.208 798.39 150.464C798.39 153.504 797.782 156.096 796.566 158.24C795.382 160.352 793.782 161.936 791.766 162.992C789.782 164.016 787.59 164.528 785.19 164.528C781.19 164.528 778.086 163.296 775.878 160.832C773.67 158.336 772.566 154.96 772.566 150.704ZM785.574 161.408C789.19 161.408 790.998 157.92 790.998 150.944C790.998 147.296 790.566 144.528 789.702 142.64C788.838 140.72 787.43 139.76 785.478 139.76C781.766 139.76 779.91 143.248 779.91 150.224C779.91 153.872 780.358 156.656 781.254 158.576C782.182 160.464 783.622 161.408 785.574 161.408ZM804.962 128.912L801.506 128.288V125.696L810.338 124.64H810.434L811.73 125.552V148.352L811.586 150.896L821.378 140.624L817.826 140.096V137.36H830.354V140.096L826.466 140.72L820.562 146.384L828.962 160.736L831.602 161.12V164H818.93V161.12L821.378 160.688L815.906 150.56L811.586 154.928L811.682 157.376V160.688L814.706 161.12V164H802.178V161.12L804.962 160.688V128.912ZM838.269 160.064C838.525 160.448 839.101 160.816 839.997 161.168C840.925 161.488 841.853 161.648 842.781 161.648C844.285 161.648 845.405 161.344 846.141 160.736C846.909 160.096 847.293 159.264 847.293 158.24C847.293 157.184 846.829 156.336 845.901 155.696C844.973 155.024 843.405 154.208 841.197 153.248L839.853 152.672C837.645 151.744 835.997 150.624 834.909 149.312C833.821 148 833.277 146.304 833.277 144.224C833.277 142.784 833.709 141.504 834.573 140.384C835.437 139.232 836.653 138.336 838.221 137.696C839.789 137.056 841.597 136.736 843.645 136.736C845.149 136.736 846.429 136.832 847.485 137.024C848.573 137.216 849.709 137.472 850.893 137.792C851.533 138.016 852.013 138.144 852.333 138.176V144.464H848.541L847.437 140.816C847.245 140.496 846.813 140.208 846.141 139.952C845.469 139.696 844.701 139.568 843.837 139.568C842.525 139.568 841.469 139.856 840.669 140.432C839.901 140.976 839.517 141.744 839.517 142.736C839.517 143.632 839.789 144.384 840.333 144.992C840.877 145.568 841.469 146.016 842.109 146.336C842.749 146.656 843.933 147.184 845.661 147.92C847.389 148.656 848.813 149.36 849.933 150.032C851.085 150.704 852.029 151.584 852.765 152.672C853.533 153.728 853.917 155.024 853.917 156.56C853.917 158.928 852.989 160.848 851.133 162.32C849.277 163.792 846.605 164.528 843.117 164.528C841.485 164.528 840.013 164.384 838.701 164.096C837.421 163.808 835.933 163.424 834.237 162.944L833.181 162.608V156.272H837.165L838.269 160.064ZM376.949 201.056H372.917V198.368L376.949 197.408V195.296C376.949 193.216 377.493 191.312 378.581 189.584C379.701 187.856 381.189 186.496 383.045 185.504C384.901 184.48 386.869 183.968 388.949 183.968C390.037 183.968 391.061 184.128 392.021 184.448V190.592C391.701 190.272 391.061 189.952 390.101 189.632C389.173 189.312 388.197 189.152 387.173 189.152C385.925 189.152 385.029 189.472 384.485 190.112C383.973 190.72 383.717 191.776 383.717 193.28V197.36H389.813V201.056H383.717V220.736L388.757 221.12V224H373.157V221.12L376.949 220.688V201.056ZM393.23 221.168L396.398 220.784V201.872L393.326 201.008V197.696L400.766 196.688H400.91L402.11 197.648V198.704L401.966 202.592H402.11C402.334 201.952 402.862 201.168 403.694 200.24C404.526 199.28 405.566 198.448 406.814 197.744C408.094 197.008 409.47 196.64 410.942 196.64C411.646 196.64 412.254 196.736 412.766 196.928V204.128C411.806 203.456 410.638 203.12 409.262 203.12C406.926 203.12 404.894 203.744 403.166 204.992V220.736L408.734 221.168V224H393.23V221.168ZM415.824 210.704C415.824 207.696 416.416 205.136 417.6 203.024C418.816 200.912 420.432 199.328 422.448 198.272C424.464 197.184 426.656 196.64 429.024 196.64C433.056 196.64 436.16 197.888 438.336 200.384C440.544 202.848 441.648 206.208 441.648 210.464C441.648 213.504 441.04 216.096 439.824 218.24C438.64 220.352 437.04 221.936 435.024 222.992C433.04 224.016 430.848 224.528 428.448 224.528C424.448 224.528 421.344 223.296 419.136 220.832C416.928 218.336 415.824 214.96 415.824 210.704ZM428.832 221.408C432.448 221.408 434.256 217.92 434.256 210.944C434.256 207.296 433.824 204.528 432.96 202.64C432.096 200.72 430.688 199.76 428.736 199.76C425.024 199.76 423.168 203.248 423.168 210.224C423.168 213.872 423.616 216.656 424.512 218.576C425.44 220.464 426.88 221.408 428.832 221.408ZM446.012 221.12L448.7 220.688V201.872L445.628 201.008V197.696L453.596 196.688L454.172 197.072L454.892 198.656V200.672C455.948 199.648 457.452 198.752 459.404 197.984C461.388 197.184 463.1 196.784 464.54 196.784C466.268 196.784 467.66 197.072 468.716 197.648C469.804 198.224 470.62 199.12 471.164 200.336C472.22 199.376 473.612 198.544 475.34 197.84C477.068 197.136 478.764 196.784 480.428 196.784C483.276 196.784 485.292 197.616 486.476 199.28C487.66 200.944 488.252 203.664 488.252 207.44V220.688L491.372 221.12V224H478.94V221.12L481.436 220.688V207.632C481.436 205.136 481.132 203.392 480.524 202.4C479.948 201.376 478.828 200.864 477.164 200.864C476.268 200.864 475.34 201.072 474.38 201.488C473.452 201.872 472.62 202.352 471.884 202.928C472.108 204.144 472.22 205.664 472.22 207.488V220.688L475.196 221.12V224H462.668V221.12L465.308 220.688V207.488C465.308 205.824 465.196 204.528 464.972 203.6C464.78 202.64 464.396 201.952 463.82 201.536C463.244 201.088 462.412 200.864 461.324 200.864C460.3 200.864 459.276 201.104 458.252 201.584C457.26 202.032 456.364 202.576 455.564 203.216V220.688L458.396 221.12V224H446.012V221.12ZM510.284 235.952C509.708 235.952 509.084 235.904 508.412 235.808C507.772 235.712 507.308 235.6 507.02 235.472V230.336C507.244 230.464 507.692 230.592 508.364 230.72C509.036 230.848 509.644 230.912 510.188 230.912C511.788 230.912 513.1 230.384 514.124 229.328C515.18 228.272 516.156 226.496 517.052 224H514.46L505.436 200.72L503.276 200.096V197.312H516.476V200.096L512.972 200.672L517.244 213.968L518.972 219.632L520.46 213.968L524.396 200.672L521.372 200.096V197.312H531.788V200.096L529.436 200.672C527.676 206.048 525.932 211.232 524.204 216.224C522.476 221.216 521.468 224.016 521.18 224.624C520.156 227.312 519.18 229.456 518.252 231.056C517.324 232.656 516.22 233.872 514.94 234.704C513.66 235.536 512.108 235.952 510.284 235.952ZM533.527 210.704C533.527 207.696 534.119 205.136 535.303 203.024C536.519 200.912 538.135 199.328 540.151 198.272C542.167 197.184 544.359 196.64 546.727 196.64C550.759 196.64 553.863 197.888 556.039 200.384C558.247 202.848 559.351 206.208 559.351 210.464C559.351 213.504 558.743 216.096 557.527 218.24C556.343 220.352 554.743 221.936 552.727 222.992C550.743 224.016 548.551 224.528 546.151 224.528C542.151 224.528 539.047 223.296 536.839 220.832C534.631 218.336 533.527 214.96 533.527 210.704ZM546.535 221.408C550.151 221.408 551.959 217.92 551.959 210.944C551.959 207.296 551.527 204.528 550.663 202.64C549.799 200.72 548.391 199.76 546.439 199.76C542.727 199.76 540.871 203.248 540.871 210.224C540.871 213.872 541.319 216.656 542.215 218.576C543.143 220.464 544.583 221.408 546.535 221.408ZM585.363 224.48C584.307 224.48 583.539 224.256 583.059 223.808C582.579 223.36 582.339 222.688 582.339 221.792V220.496C581.475 221.552 580.259 222.496 578.691 223.328C577.123 224.128 575.555 224.528 573.987 224.528C570.915 224.528 568.723 223.744 567.411 222.176C566.099 220.576 565.443 217.952 565.443 214.304V200.768L563.043 200.096V197.36L571.203 196.736H571.251L572.211 197.408V214.304C572.211 216.64 572.499 218.272 573.075 219.2C573.651 220.128 574.723 220.592 576.291 220.592C578.179 220.592 579.939 219.856 581.571 218.384V200.768L578.355 200.048V197.36L587.043 196.736H587.139L588.291 197.408V221.024H590.979L590.931 223.76C590.803 223.792 590.211 223.92 589.155 224.144C588.099 224.368 586.835 224.48 585.363 224.48ZM613.826 224.432C611.81 224.432 610.322 223.968 609.362 223.04C608.402 222.112 607.922 220.64 607.922 218.624V201.008H604.802V198.512C605.058 198.416 605.522 198.256 606.194 198.032C606.866 197.776 607.378 197.568 607.73 197.408C608.274 196.992 608.738 196.272 609.122 195.248C609.41 194.576 609.938 192.912 610.706 190.256H614.546L614.738 197.312H622.082V201.008H614.786V214.496C614.786 216.288 614.834 217.552 614.93 218.288C615.026 219.024 615.234 219.504 615.554 219.728C615.874 219.92 616.434 220.016 617.234 220.016C618.034 220.016 618.866 219.936 619.73 219.776C620.594 219.584 621.314 219.36 621.89 219.104L622.802 221.792C621.906 222.464 620.594 223.072 618.866 223.616C617.138 224.16 615.458 224.432 613.826 224.432ZM625.355 210.704C625.355 207.696 625.947 205.136 627.131 203.024C628.347 200.912 629.963 199.328 631.979 198.272C633.995 197.184 636.187 196.64 638.555 196.64C642.587 196.64 645.691 197.888 647.867 200.384C650.075 202.848 651.179 206.208 651.179 210.464C651.179 213.504 650.571 216.096 649.355 218.24C648.171 220.352 646.571 221.936 644.555 222.992C642.571 224.016 640.379 224.528 637.979 224.528C633.979 224.528 630.875 223.296 628.667 220.832C626.459 218.336 625.355 214.96 625.355 210.704ZM638.363 221.408C641.979 221.408 643.787 217.92 643.787 210.944C643.787 207.296 643.355 204.528 642.491 202.64C641.627 200.72 640.219 199.76 638.267 199.76C634.555 199.76 632.699 203.248 632.699 210.224C632.699 213.872 633.147 216.656 634.043 218.576C634.971 220.464 636.411 221.408 638.363 221.408ZM666.933 221.168L670.101 220.784V201.872L667.029 201.008V197.696L674.469 196.688H674.613L675.813 197.648V198.704L675.669 202.592H675.813C676.037 201.952 676.565 201.168 677.397 200.24C678.229 199.28 679.269 198.448 680.517 197.744C681.797 197.008 683.173 196.64 684.645 196.64C685.349 196.64 685.957 196.736 686.469 196.928V204.128C685.509 203.456 684.341 203.12 682.965 203.12C680.629 203.12 678.597 203.744 676.869 204.992V220.736L682.437 221.168V224H666.933V221.168ZM701.623 224.528C697.399 224.528 694.247 223.296 692.167 220.832C690.119 218.336 689.095 214.944 689.095 210.656C689.095 207.776 689.623 205.28 690.679 203.168C691.767 201.056 693.287 199.44 695.239 198.32C697.191 197.2 699.447 196.64 702.007 196.64C705.207 196.64 707.671 197.488 709.399 199.184C711.127 200.848 712.023 203.232 712.087 206.336C712.087 208.448 711.959 210.016 711.703 211.04H696.103C696.231 213.952 696.919 216.224 698.167 217.856C699.415 219.456 701.191 220.256 703.495 220.256C704.743 220.256 706.023 220.048 707.335 219.632C708.679 219.216 709.735 218.72 710.503 218.144L711.703 220.784C710.839 221.712 709.431 222.576 707.479 223.376C705.559 224.144 703.607 224.528 701.623 224.528ZM705.367 208.16C705.431 207.264 705.463 206.576 705.463 206.096C705.463 201.84 704.039 199.712 701.191 199.712C699.623 199.712 698.407 200.336 697.543 201.584C696.679 202.832 696.199 205.024 696.103 208.16H705.367ZM713.47 197.312H726.142V200.096L722.974 200.72L727.342 213.776L728.878 218.864L730.174 213.92L734.446 200.72L731.422 200.096V197.312H741.982V200.096L739.486 200.72L730.558 224.384H724.99L715.438 200.72L713.47 200.096V197.312ZM749.052 192.944C747.9 192.944 746.988 192.608 746.316 191.936C745.644 191.264 745.308 190.4 745.308 189.344C745.308 188.128 745.692 187.12 746.46 186.32C747.228 185.52 748.252 185.12 749.532 185.12C750.812 185.12 751.788 185.472 752.46 186.176C753.132 186.848 753.468 187.696 753.468 188.72C753.468 190 753.084 191.024 752.316 191.792C751.548 192.56 750.476 192.944 749.1 192.944H749.052ZM746.508 201.872L743.1 200.96V197.744L751.884 196.688H751.98L753.324 197.648V220.736L756.54 221.12V224H743.148V221.12L746.508 220.688V201.872ZM772.076 224.528C767.852 224.528 764.7 223.296 762.62 220.832C760.572 218.336 759.548 214.944 759.548 210.656C759.548 207.776 760.076 205.28 761.132 203.168C762.22 201.056 763.74 199.44 765.692 198.32C767.644 197.2 769.9 196.64 772.46 196.64C775.66 196.64 778.124 197.488 779.852 199.184C781.58 200.848 782.476 203.232 782.54 206.336C782.54 208.448 782.412 210.016 782.156 211.04H766.556C766.684 213.952 767.372 216.224 768.62 217.856C769.868 219.456 771.644 220.256 773.948 220.256C775.196 220.256 776.476 220.048 777.788 219.632C779.132 219.216 780.188 218.72 780.956 218.144L782.156 220.784C781.292 221.712 779.884 222.576 777.932 223.376C776.012 224.144 774.06 224.528 772.076 224.528ZM775.82 208.16C775.884 207.264 775.916 206.576 775.916 206.096C775.916 201.84 774.492 199.712 771.644 199.712C770.076 199.712 768.86 200.336 767.996 201.584C767.132 202.832 766.652 205.024 766.556 208.16H775.82ZM783.539 197.36H795.923V200.096L792.563 200.672L796.115 213.44L797.267 218.672L798.323 213.392L802.643 197.36H808.451L813.203 213.392L814.355 218.672L815.507 213.44L818.867 200.72L815.363 200.096V197.36H825.635V200.096L823.187 200.624L815.891 224.384H810.371L805.523 208.832L804.419 203.12L803.555 208.832L799.091 224.384H793.523L785.843 200.624L783.539 200.096V197.36Z" fill="#463C74"/>
</svg>
